<?xml version="1.0" encoding="UTF-8" standalone="no"?>
<svg viewBox="0 0 240 240" version="1.1" id="svg22" sodipodi:docname="telegram-icon.svg" inkscape:version="1.1 (c68e22c387, 2021-05-23)" xmlns:inkscape="http://www.inkscape.org/namespaces/inkscape" xmlns:sodipodi="http://sodipodi.sourceforge.net/DTD/sodipodi-0.dtd" xmlns="http://www.w3.org/2000/svg" xmlns:svg="http://www.w3.org/2000/svg">
  <sodipodi:namedview id="namedview24" pagecolor="#505050" bordercolor="#eeeeee" borderopacity="1" inkscape:pageshadow="0" inkscape:pageopacity="0" inkscape:pagecheckerboard="0" showgrid="false" inkscape:zoom="3.1375" inkscape:cx="119.84064" inkscape:cy="120" inkscape:window-width="2050" inkscape:window-height="1201" inkscape:window-x="42" inkscape:window-y="52" inkscape:window-maximized="1" inkscape:current-layer="svg22" />
  <defs id="defs12">
    <linearGradient id="a" x1=".667" x2=".417" y1=".167" y2=".75">
      <stop offset="0" stop-color="#37aee2" id="stop2" />
      <stop offset="1" stop-color="#1e96c8" id="stop4" />
    </linearGradient>
    <linearGradient id="b" x1="0.66000003" x2="0.85100001" y1="0.43700001" y2="0.80199999" gradientUnits="objectBoundingBox" spreadMethod="pad">
      <stop offset="0" stop-color="#eff7fc" id="stop7" />
      <stop offset="1" stop-color="#fff" id="stop9" />
    </linearGradient>
  </defs>
  <circle cx="120" cy="120" r="120" fill="url(#a)" id="circle14" style="fill:gray" />
  <path fill="#c8daea" d="M98 175c-3.888 0-3.227-1.468-4.568-5.17L82 132.207 170 80" id="path16" style="fill:#ccc" />
  <path fill="#a9c9dd" d="M98 175c3 0 4.325-1.372 6-3l16-15.558-19.958-12.035" id="path18" style="fill:#b3b3b3" />
  <path fill="url(#b)" d="M100.04 144.41l48.36 35.729c5.519 3.045 9.501 1.468 10.876-5.123l19.685-92.763c2.015-8.08-3.08-11.746-8.36-9.349l-115.59 44.571c-7.89 3.165-7.843 7.567-1.438 9.528l29.663 9.259 68.673-43.325c3.242-1.966 6.218-.91 3.776 1.258" id="path20" style="fill-opacity:1;fill-rule:nonzero;fill:#eff7fc" />
</svg>
