<?xml version="1.0" encoding="iso-8859-1"?>
<!-- Generator: Adobe Illustrator 19.0.0, SVG Export Plug-In . SVG Version: 6.00 Build 0)  -->
<svg version="1.1" id="Layer_1" xmlns="http://www.w3.org/2000/svg" xmlns:xlink="http://www.w3.org/1999/xlink" x="0px" y="0px"
	 viewBox="0 0 512 512" style="enable-background:new 0 0 512 512;" xml:space="preserve">
<g>
	<path style="fill:#507C5C;" d="M453.253,512h-266.24c-8.011,0-14.504-6.495-14.504-14.504V14.685
		c0-8.009,6.493-14.504,14.504-14.504h266.24c21.211,0,38.466,17.255,38.466,38.467v242.005c0,8.009-6.495,14.504-14.504,14.504
		s-14.504-6.495-14.504-14.504V38.649c0-5.217-4.244-9.459-9.458-9.459H201.517v453.803h251.736c5.216,0,9.458-4.244,9.458-9.458
		V361.155c0-8.009,6.495-14.504,14.504-14.504s14.504,6.495,14.504,14.504v112.379C491.718,494.743,474.463,512,453.253,512z"/>
	<path style="fill:#507C5C;" d="M392.304,124.734h-65.993c-8.009,0-14.504-6.495-14.504-14.504V14.504
		C311.807,6.495,318.302,0,326.311,0h65.993c19.595,0,35.535,15.94,35.535,35.535v53.665
		C427.839,108.794,411.899,124.734,392.304,124.734z M340.815,95.726h51.489c3.598,0,6.527-2.928,6.527-6.527V35.535
		c0-3.598-2.928-6.527-6.527-6.527h-51.489V95.726L340.815,95.726z"/>
	<path style="fill:#507C5C;" d="M392.304,220.46h-65.993c-8.009,0-14.504-6.495-14.504-14.504V110.23
		c0-8.009,6.495-14.504,14.504-14.504h65.993c19.595,0,35.535,15.94,35.535,35.535v53.665
		C427.839,204.52,411.899,220.46,392.304,220.46z M340.815,191.452h51.489c3.598,0,6.527-2.928,6.527-6.527V131.26
		c0-3.598-2.928-6.527-6.527-6.527h-51.489V191.452L340.815,191.452z"/>
	<path style="fill:#507C5C;" d="M326.311,316.185c-8.009,0-14.504-6.495-14.504-14.504v-95.726c0-8.009,6.495-14.504,14.504-14.504
		h65.993c19.595,0,35.535,15.94,35.535,35.535v53.669c0,8.009-6.495,14.504-14.504,14.504s-14.504-6.495-14.504-14.504v-53.669
		c0-3.598-2.928-6.527-6.527-6.527h-51.489v81.222C340.815,309.691,334.322,316.185,326.311,316.185z"/>
</g>
<path style="fill:#CFF09E;" d="M326.311,497.405H100.778c-19.625,0-35.535-15.909-35.535-35.535V50.13
	c0-19.625,15.909-35.535,35.535-35.535h225.533V497.405z"/>
<g>
	<path style="fill:#507C5C;" d="M326.311,511.909H100.778c-27.591,0-50.039-22.448-50.039-50.039V50.13
		c0-27.591,22.448-50.039,50.039-50.039h225.533c8.009,0,14.504,6.495,14.504,14.504v482.811
		C340.815,505.415,334.322,511.909,326.311,511.909z M100.778,29.099c-11.596,0-21.031,9.435-21.031,21.031v411.742
		c0,11.596,9.435,21.031,21.031,21.031h211.029V29.099H100.778z"/>
	<path style="fill:#507C5C;" d="M100.533,130.055H34.785c-8.011,0-14.504-6.495-14.504-14.504s6.493-14.504,14.504-14.504h65.748
		c8.011,0,14.504,6.495,14.504,14.504S108.544,130.055,100.533,130.055z"/>
	<path style="fill:#507C5C;" d="M100.533,270.504H34.785c-8.011,0-14.504-6.495-14.504-14.504s6.493-14.504,14.504-14.504h65.748
		c8.011,0,14.504,6.495,14.504,14.504S108.544,270.504,100.533,270.504z"/>
	<path style="fill:#507C5C;" d="M100.533,410.953H34.785c-8.011,0-14.504-6.495-14.504-14.504c0-8.009,6.493-14.504,14.504-14.504
		h65.748c8.011,0,14.504,6.495,14.504,14.504C115.037,404.458,108.544,410.953,100.533,410.953z"/>
</g>
<g>
</g>
<g>
</g>
<g>
</g>
<g>
</g>
<g>
</g>
<g>
</g>
<g>
</g>
<g>
</g>
<g>
</g>
<g>
</g>
<g>
</g>
<g>
</g>
<g>
</g>
<g>
</g>
<g>
</g>
</svg>
