<?xml version="1.0" encoding="UTF-8" standalone="no"?>
<!-- Created with Inkscape (http://www.inkscape.org/) -->

<svg version="1.1" id="svg1750" width="920" height="800" viewBox="0 0 920 800" xmlns="http://www.w3.org/2000/svg" xmlns:svg="http://www.w3.org/2000/svg">
  <defs id="defs1754" />
  <g id="g1756" style="fill:#ccc">
    <path style="fill:#ccc;stroke:none" d="M 450,40.4244 C 422.705,44.0083 395.948,44.7989 369,51.8843 283.645,74.3267 206.649,128.581 158.692,203 c -82.5805,128.147 -76.4103,298.54 17.97,419 25.546,32.605 56.569,59.924 91.338,82.308 33.202,21.375 70.62,36.711 109,45.808 42.091,9.976 86.195,12.231 129,6.602 C 682.444,733.517 815.647,582.103 819.985,405 823.919,244.43 711.428,97.3474 558,53.8596 525.076,44.5275 484.298,35.921 450,40.4244 M 531,465 c 17.807,-2.62 36.634,-11.512 52,-20.603 C 607.136,430.117 628.111,411.266 642.547,387 688.664,309.481 665.59,197.43 595,143.235 c -23.223,-17.829 -50.545,-30.265 -79,-37 -9.221,-2.183 -18.57,-4.056 -28,-5.069 -4.475,-0.481 -11.663,0.21 -15.682,-1.7694 -3.914,-1.928 -4.097,-23.7496 -0.715,-26.365 4.268,-3.2995 19.136,0.5077 24.397,0.9684 26.13,2.2883 52.463,8.8021 77,17.9498 C 677.589,130.942 756.479,220.904 780.576,330 810.468,465.337 748.334,610.25 629,681.396 c -36.35,21.671 -76.297,35.841 -118,42.684 -9.971,1.636 -19.952,2.321 -30,3.009 -2.854,0.196 -7.809,2.017 -9.972,-0.693 -2.52,-3.157 -1.481,-10.624 2.12,-12.404 7.878,-3.893 16.173,-5.798 23.852,-10.442 20.425,-12.352 34.717,-33.186 39.195,-56.55 5.642,-29.434 -6.041,-59.053 -28.195,-78.826 -8.095,-7.226 -17.805,-12.849 -28,-16.482 -2.536,-0.904 -9.364,-1.96 -9.364,-5.598 0,-3.357 6.078,-3.84 8.364,-4.533 9.068,-2.748 17.817,-7.713 25,-13.861 18.547,-15.874 26.997,-38.728 27,-62.7 M 450,131.286 c 51.219,-6.044 113.02,16.991 146.711,55.714 42.243,48.553 49.986,127.571 18.977,184 -15.439,28.096 -43.565,46.363 -72.688,57.797 -11.09,4.354 -28.883,4.837 -37.895,12.597 -9.64,8.299 -5.094,23.579 -6.279,34.606 -2.434,22.654 -22.579,38.375 -44.826,37.946 -5.528,-0.107 -11.745,-0.972 -17,-2.695 C 402.386,499.9 409,459.384 409,431 c 0,-13.279 -2.968,-30.708 2.919,-43 C 420.805,369.446 454.775,370.413 472,365.279 518.09,351.543 550.102,297.17 515.535,255 487.839,221.211 433.253,216.25 401,247.039 378.999,268.042 359.84,308.294 323,295.301 284.622,281.766 291.704,230.12 309.345,203 340.831,154.594 395.945,137.664 450,131.286 M 470,332 v -72 c 35.579,8.451 37.968,65.232 0,72 m -24,247.3 c 53.967,-7.78 82.139,65.859 37,96.34 -7.207,4.867 -15.422,7.704 -24,8.932 -55.138,7.895 -75.845,-69.691 -32,-97.517 5.768,-3.661 12.17,-6.77 19,-7.755 z" id="path2110" />
  </g>
</svg>
