<?xml version="1.0" encoding="UTF-8" standalone="no"?>
<!-- Created with Inkscape (http://www.inkscape.org/) -->

<svg width="226.45833mm" height="139.6875mm" viewBox="0 0 226.45833 139.6875" version="1.1" id="svg5" inkscape:version="1.1 (c68e22c387, 2021-05-23)" sodipodi:docname="logo.svg" inkscape:export-filename="/home/channi/Documents/work/entropy/src/web/static/logo.png" inkscape:export-xdpi="491.51999" inkscape:export-ydpi="491.51999" xmlns:inkscape="http://www.inkscape.org/namespaces/inkscape" xmlns:sodipodi="http://sodipodi.sourceforge.net/DTD/sodipodi-0.dtd" xmlns="http://www.w3.org/2000/svg" xmlns:svg="http://www.w3.org/2000/svg">
  <sodipodi:namedview id="namedview7" pagecolor="#505050" bordercolor="#eeeeee" borderopacity="1" inkscape:pageshadow="0" inkscape:pageopacity="0" inkscape:pagecheckerboard="0" inkscape:document-units="px" showgrid="false" inkscape:snap-smooth-nodes="false" showborder="true" inkscape:zoom="0.70710679" inkscape:cx="716.29916" inkscape:cy="712.05652" inkscape:window-width="2558" inkscape:window-height="1398" inkscape:window-x="0" inkscape:window-y="40" inkscape:window-maximized="1" inkscape:current-layer="layer1" borderlayer="false" inkscape:showpageshadow="true" fit-margin-top="100" fit-margin-left="100" fit-margin-right="100" fit-margin-bottom="0" />
  <defs id="defs2">
    <linearGradient id="linearGradient29653" inkscape:swatch="solid">
      <stop style="stop-color:#000000;stop-opacity:1;" offset="0" id="stop29651" />
    </linearGradient>
  </defs>
  <g inkscape:label="Layer 1" inkscape:groupmode="layer" id="layer1" transform="translate(100,100)">
    <g aria-label="ⵉ" id="text1508" style="font-size:50.8px;line-height:1.25;fill:#a8d503;stroke:none;stroke-opacity:1" transform="matrix(1.1077681,0,0,1.0715046,-100.48109,-81.434247)" inkscape:export-filename="/home/channi/Documents/work/entropy/src/web/static/logo.png" inkscape:export-xdpi="491.51999" inkscape:export-ydpi="491.51999">
      <path id="path27478" style="font-family:'DejaVu Sans';-inkscape-font-specification:'DejaVu Sans';stroke:none;stroke-width:3.77953;stroke-opacity:1" d="m 422.51172,80.6875 c -0.0573,-5.17e-4 -0.11497,5.15e-4 -0.17383,0.002 -3.30429,0.08072 -9.90698,0.02204 -11.55859,0.0059 v -0.0059 h -0.67969 -67.60156 c -2.20298,0 -6.04102,2.878845 -6.04102,5.582031 v 6.84961 c 0,2.675697 0.3111,3.849233 2.22852,5.966797 l 38.36133,42.365232 c 2.30795,2.54888 3.02132,6.68524 0.71679,9.45508 -2.30453,2.76984 -39.60742,51.59961 -39.60742,51.59961 -0.3114,0.40566 -1.86125,3.70324 -1.69922,4.77735 0.16203,1.0741 0,8.64648 0,8.64648 0,2.13536 1.54594,4.72656 3.96289,4.72656 h 69.67969 v 0.0176 c 0,0 8.47107,-0.0918 12.23828,0 3.76721,0.0922 4.37891,-3.87612 4.37891,-4.76367 0,0 -0.19378,-17.66058 -0.043,-20.23047 0.1508,-2.56989 -2.51144,-4.23437 -4.84375,-4.23437 0,0 -4.88518,0.14778 -7.21485,0 -2.32962,-0.14778 -4.51562,2.00385 -4.51562,4.20898 0,0.42968 0,1.82052 0,3.6591 0.16188,6.10735 0.49346,5.40535 -5.79446,5.40535 H 367.582 c -7.24882,0 -11.10731,2.86863 -1.69531,-10.07031 9.412,-12.93894 31.34693,-41.09637 33.08789,-43.37891 2.43916,-3.19789 2.04321,-7.86961 -0.88086,-10.92578 -2.10811,-2.20333 -24.67238,-26.99133 -32.79492,-35.91992 -8.12254,-8.928588 -5.50394,-8.31228 1.58594,-7.79883 5.37485,0.389248 27.46868,0.192311 37.85926,0.07408 5.64331,-0.205364 5.35558,-0.839992 5.35558,4.21191 v 4.79604 c 0,2.20511 2.186,4.35681 4.51562,4.20899 2.32967,-0.14786 7.21485,0 7.21485,0 2.33231,0 4.99455,-1.66448 4.84375,-4.23438 -0.15081,-2.56989 0.043,-20.230465 0.043,-20.230465 0,-0.873664 -0.59317,-4.733066 -4.20508,-4.765625 z" transform="scale(0.26458333)" sodipodi:nodetypes="sscccsssccscscsccccscssccssssssccsscscss" />
    </g>
  </g>
</svg>
