<?xml version="1.0" encoding="UTF-8"?>
<!-- Created with Inkscape (http://www.inkscape.org/) -->
<svg width="26.458mm" height="39.688mm" version="1.1" viewBox="0 0 26.458 39.688" xmlns="http://www.w3.org/2000/svg">
 <g transform="matrix(1.1078 0 0 1.0715 -98.611 -22.875)" fill="#a8d503" aria-label="ⵉ">
  <path transform="scale(.26458)" d="m422.51 80.688c-0.0573-5.17e-4 -0.11497 5.15e-4 -0.17383 2e-3 -3.3043 0.08072-9.907 0.02204-11.559 0.0059v-0.0059h-68.281c-2.203 0-6.041 2.8788-6.041 5.582v6.8496c0 2.6757 0.3111 3.8492 2.2285 5.9668l38.361 42.365c2.308 2.5489 3.0213 6.6852 0.71679 9.4551s-39.607 51.6-39.607 51.6c-0.3114 0.40566-1.8612 3.7032-1.6992 4.7774 0.16203 1.0741 0 8.6465 0 8.6465 0 2.1354 1.5459 4.7266 3.9629 4.7266h69.68v0.0176s8.4711-0.0918 12.238 0c3.7672 0.0922 4.3789-3.8761 4.3789-4.7637 0 0-0.19378-17.661-0.043-20.23 0.1508-2.5699-2.5114-4.2344-4.8438-4.2344 0 0-4.8852 0.14778-7.2148 0-2.3296-0.14778-4.5156 2.0038-4.5156 4.209v3.6591c0.16188 6.1074 0.49346 5.4054-5.7945 5.4054h-36.723c-7.2488 0-11.107 2.8686-1.6953-10.07s31.347-41.096 33.088-43.379c2.4392-3.1979 2.0432-7.8696-0.88086-10.926-2.1081-2.2033-24.672-26.991-32.795-35.92-8.1225-8.9286-5.5039-8.3123 1.5859-7.7988 5.3748 0.38925 27.469 0.19231 37.859 0.07408 5.6433-0.20536 5.3556-0.83999 5.3556 4.2119v4.796c0 2.2051 2.186 4.3568 4.5156 4.209 2.3297-0.14786 7.2148 0 7.2148 0 2.3323 0 4.9946-1.6645 4.8438-4.2344-0.15081-2.5699 0.043-20.23 0.043-20.23 0-0.87366-0.59317-4.7331-4.2051-4.7656z"/>
 </g>
</svg>
