<?xml version="1.0" encoding="UTF-8" standalone="no"?>
<!-- Created with Inkscape (http://www.inkscape.org/) -->

<svg width="224.32759" height="204.44507" viewBox="0 0 59.353344 54.092758" version="1.1" id="svg5" inkscape:version="1.1 (c68e22c387, 2021-05-23)" sodipodi:docname="call-channel.svg" inkscape:export-filename="/home/channi/Documents/work/entropy/src/web/static/call-channel.png" inkscape:export-xdpi="491.51999" inkscape:export-ydpi="491.51999" xmlns:inkscape="http://www.inkscape.org/namespaces/inkscape" xmlns:sodipodi="http://sodipodi.sourceforge.net/DTD/sodipodi-0.dtd" xmlns="http://www.w3.org/2000/svg" xmlns:svg="http://www.w3.org/2000/svg">
  <sodipodi:namedview id="namedview7" pagecolor="#505050" bordercolor="#eeeeee" borderopacity="1" inkscape:pageshadow="0" inkscape:pageopacity="0" inkscape:pagecheckerboard="false" inkscape:document-units="px" showgrid="false" inkscape:snap-smooth-nodes="false" showborder="true" inkscape:zoom="2.8284272" inkscape:cx="124.27402" inkscape:cy="117.20295" inkscape:window-width="2558" inkscape:window-height="1398" inkscape:window-x="0" inkscape:window-y="40" inkscape:window-maximized="1" inkscape:current-layer="layer1" borderlayer="false" inkscape:showpageshadow="true" fit-margin-top="34" fit-margin-left="10" fit-margin-right="10" fit-margin-bottom="34" units="px" />
  <defs id="defs2">
    <linearGradient id="linearGradient29653" inkscape:swatch="solid">
      <stop style="stop-color:#000000;stop-opacity:1;" offset="0" id="stop29651" />
    </linearGradient>
  </defs>
  <g inkscape:label="Layer 1" inkscape:groupmode="layer" id="layer1" transform="translate(16.823487,31.0759)">
    <g aria-label="ⵉ" id="text1508" style="font-size:50.8px;line-height:1.25;fill:#a8d503;stroke:none;stroke-opacity:1" transform="matrix(0.6596458,0,0,0.63805187,-54.004526,-23.233271)" inkscape:export-filename="/home/channi/text1508.png" inkscape:export-xdpi="491.51999" inkscape:export-ydpi="491.51999">
      <path id="path27478" style="font-family:'DejaVu Sans';-inkscape-font-specification:'DejaVu Sans';stroke:none;stroke-width:3.77953;stroke-opacity:1" d="m 422.51172,80.6875 c -0.0573,-5.17e-4 -0.11497,5.15e-4 -0.17383,0.002 -3.30429,0.08072 -9.90698,0.02204 -11.55859,0.0059 v -0.0059 h -0.67969 -67.60156 c -2.20298,0 -6.04102,2.878845 -6.04102,5.582031 v 6.84961 c 0,2.675697 0.3111,3.849233 2.22852,5.966797 l 38.36133,42.365232 c 2.30795,2.54888 3.02132,6.68524 0.71679,9.45508 -2.30453,2.76984 -39.60742,51.59961 -39.60742,51.59961 -0.3114,0.40566 -1.86125,3.70324 -1.69922,4.77735 0.16203,1.0741 0,8.64648 0,8.64648 0,2.13536 1.54594,4.72656 3.96289,4.72656 h 69.67969 v 0.0176 c 0,0 8.47107,-0.0918 12.23828,0 3.76721,0.0922 4.37891,-3.87612 4.37891,-4.76367 0,0 -0.19378,-17.66058 -0.043,-20.23047 0.1508,-2.56989 -2.51144,-4.23437 -4.84375,-4.23437 0,0 -4.88518,0.14778 -7.21485,0 -2.32962,-0.14778 -4.51562,2.00385 -4.51562,4.20898 0,0.42968 0,1.82052 0,3.6591 0.16188,6.10735 0.49346,5.40535 -5.79446,5.40535 H 367.582 c -7.24882,0 -11.10731,2.86863 -1.69531,-10.07031 9.412,-12.93894 31.34693,-41.09637 33.08789,-43.37891 2.43916,-3.19789 2.04321,-7.86961 -0.88086,-10.92578 -2.10811,-2.20333 -24.67238,-26.99133 -32.79492,-35.91992 -8.12254,-8.928588 -5.50394,-8.31228 1.58594,-7.79883 5.37485,0.389248 27.46868,0.192311 37.85926,0.07408 5.64331,-0.205364 5.35558,-0.839992 5.35558,4.21191 v 4.79604 c 0,2.20511 2.186,4.35681 4.51562,4.20899 2.32967,-0.14786 7.21485,0 7.21485,0 2.33231,0 4.99455,-1.66448 4.84375,-4.23438 -0.15081,-2.56989 0.043,-20.230465 0.043,-20.230465 0,-0.873664 -0.59317,-4.733066 -4.20508,-4.765625 z" transform="scale(0.26458333)" sodipodi:nodetypes="sscccsssccscscsccccscssccssssssccsscscss" />
    </g>
    <path d="m 35.537947,-1.2151641 -10.375912,-0.6779475 -0.139428,-0.028878 c -0.525156,-0.040883 -0.987041,-0.1770299 -1.425324,-0.3909407 -0.473502,-0.2272256 -0.903883,-0.57305 -1.272507,-0.9865498 -0.349909,-0.414545 -0.616037,-0.8949388 -0.791151,-1.371262 l -0.01017,-0.1186803 c -0.140981,-0.481287 -0.186129,-0.9832411 -0.126348,-1.4574446 l 0.01671,-0.14158 0.381263,-3.739284 c -0.218867,-0.421893 -0.786566,-1.240044 -2.265054,-1.417038 -2.385276,-0.266798 -4.772287,-0.350051 -7.11226,-0.218856 l -0.0088,0.0097 c -2.382578,0.151925 -4.74408,0.449428 -7.064863,1.013707 -1.4428737,0.322441 -1.9176035,1.192927 -2.0749957,1.657314 l 0.8272695,3.7968842 c 0.1247605,0.5250077 0.1434423,1.0559646 0.04436,1.5537742 -0.088115,0.5247152 -0.2910589,1.0130623 -0.6077464,1.4833253 l -0.038224,0.041891 c -0.3188427,0.4336939 -0.6823517,0.7995814 -1.1173028,1.068559 l -0.093654,0.057244 c -0.4191724,0.27115393 -0.9064705,0.44829373 -1.40939483,0.51929553 l 0.00108,0.018323 -10.24304957,1.84926337 -0.183181,0.025567 c -0.5227242,0.053768 -1.0435042,0.034046 -1.5634182,-0.077452 -0.560579,-0.1642456 -1.097913,-0.41235527 -1.561284,-0.78690687 -0.473261,-0.3831777 -0.828267,-0.8310575 -1.082994,-1.3304368 -0.26355,-0.48971053 -0.406952,-1.06564963 -0.417808,-1.67653743 -0.01005,-0.7026622 0.03045,-1.5059925 0.220362,-2.3757952 l 0.0032,-0.1071951 c 0.166389,-0.8440213 0.449619,-1.7771462 0.893298,-2.7498422 1.884969,-4.25164 5.2998802,-7.610657 9.5299922,-9.988069 4.47582657,-2.510467 9.8812684,-3.957034 15.3287258,-4.262455 5.439001,-0.289652 10.961905,0.528914 15.725176,2.536624 4.477539,1.886149 8.256916,4.835698 10.628648,8.867027 0.575583,0.952239 0.954858,1.866568 1.235524,2.700813 l -0.0049,0.02473 0.0147,-0.01611 c 0.261509,0.881182 0.410495,1.658604 0.470763,2.3645622 0.04759,0.5966014 -0.01965,1.156834 -0.203961,1.6961125 l -0.06665,0.1443816 c -0.187479,0.4844168 -0.47842,0.91349 -0.856644,1.2954796 -0.434098,0.4432163 -0.922701,0.7580126 -1.458845,0.9562341 l -0.08815,0.04469 z M 25.381454,-5.1371814 v 0 l 10.389468,0.6955328 c 0.103134,-0.00269 0.202977,-0.00836 0.261004,-0.032984 l 0.04001,-0.011374 c 0.09805,-0.036074 0.207147,-0.097222 0.28655,-0.1842263 0.06175,-0.067663 0.126458,-0.1385608 0.134995,-0.2063073 l 0.02174,-0.056248 c 0.04524,-0.082031 0.06376,-0.1931384 0.05145,-0.2964011 -0.04845,-0.5048298 -0.15334,-1.0645857 -0.360142,-1.7072927 -0.196913,-0.634129 -0.510794,-1.341155 -0.9362,-2.081677 -1.985481,-3.371164 -5.219007,-5.874348 -9.063823,-7.487165 -4.258929,-1.788331 -9.257114,-2.52013 -14.211621,-2.242351 -4.9787519,0.291369 -9.878892,1.547558 -13.8746754,3.81093 -3.6383744,2.059887 -6.5463744,4.882945 -8.1437636,8.488616 -0.326969,0.7215551 -0.544197,1.4461339 -0.646807,2.0970139 l -0.02174,0.056248 c -0.146651,0.6472381 -0.178681,1.2207827 -0.168743,1.7094282 -0.008,0.1319113 0.01912,0.2190659 0.07809,0.3166578 l -0.0165,-0.014367 0.0165,0.014367 c 0.04574,0.08611 0.126005,0.173326 0.207399,0.2268635 0.08907,0.077553 0.16719,0.1281905 0.295558,0.1821709 0.06642,0.011502 0.150828,0.00992 0.234889,0.00209 l 0.07454,-0.010286 10.24785477,-1.8739898 0.00994,0.00859 c 0.077816,-0.00739 0.1512694,-0.035996 0.2148193,-0.073194 l 0.032345,-0.035441 c 0.072368,-0.046875 0.1253088,-0.1048761 0.1988272,-0.1854281 l 0.014693,-0.016097 c 0.045265,-0.082032 0.096031,-0.1766208 0.1196641,-0.2543667 l 0.00877,-0.00968 c -0.00725,-0.069914 0.00281,-0.1652639 -0.00397,-0.2810708 l 0.00584,-0.00641 -0.8969584,-4.0773469 c -0.088848,-0.233507 -0.1031787,-0.477305 -0.042991,-0.731394 -0.016494,-0.01435 0.39487,-3.507675 4.65378893,-4.489429 2.5352087,-0.59161 5.0803281,-0.960563 7.6166791,-1.105825 l -0.02353,0.02578 c 2.582943,-0.150968 5.147614,-0.08074 7.732134,0.220754 4.309587,0.519693 5.131502,3.95915 5.131502,3.95915 0.0702,0.182566 0.09593,0.407383 0.06514,0.629248 l -0.406758,4.10455 -0.0045,0.1347862 c -0.02947,0.08421 -0.02484,0.1634375 0.01324,0.2255103 l 0.01606,0.060256 c 0.02043,0.0814 0.07501,0.1578397 0.146085,0.248635 0.05457,0.076426 0.141859,0.1235186 0.21774,0.1895873 0.06749,0.029851 0.128018,0.047859 0.20691,0.058718 z" id="path1096" style="fill:#a8d503;fill-opacity:1;stroke:none;stroke-width:0.043679" />
  </g>
</svg>
