<?xml version="1.0" encoding="iso-8859-1"?>
<!-- Generator: Adobe Illustrator 19.0.0, SVG Export Plug-In . SVG Version: 6.00 Build 0)  -->
<svg version="1.1" id="Layer_1" xmlns="http://www.w3.org/2000/svg" xmlns:xlink="http://www.w3.org/1999/xlink" x="0px" y="0px"
	 viewBox="0 0 512.002 512.002" style="enable-background:new 0 0 512.002 512.002;" xml:space="preserve">
<path style="fill:#FEE187;" d="M438.054,330.812l2.092,2.092L392.78,380.27l-47.839-47.839l1.619-1.621H107.87
	c2.18,71.986,44.225,134.115,104.772,164.994h173.562c60.546-30.879,102.594-93.008,104.765-164.994h-52.916V330.812z
	 M304.353,449.762h-72.904v-66.986h72.904V449.762z"/>
<g>
	<path style="fill:#FFC61B;" d="M411.436,149.865V57.467l20.695-32.592c3.168-4.988,3.367-11.302,0.521-16.481
		C429.806,3.216,424.367,0,418.46,0H203.593c-8.944,0-16.195,7.252-16.195,16.195v32.642
		C141.134,20.911,79.994,26.869,40.107,66.755C0.624,106.239-6.622,167.039,22.488,214.608c4.941,8.075,10.868,15.592,17.618,22.341
		c3.163,3.163,7.307,4.743,11.451,4.743s8.29-1.582,11.453-4.745c6.324-6.324,6.322-16.579-0.002-22.903
		c-4.946-4.946-9.283-10.444-12.893-16.344c-21.269-34.754-15.965-79.184,12.893-108.043c34.294-34.296,90.095-34.292,124.387,0
		l0.002,0.002v13.939c0,8.943,7.25,16.195,16.195,16.195s16.195-7.252,16.195-16.195V32.389h169.204l-5.769,9.084
		c-2.734,4.309-4.178,9.284-4.178,14.384v97.07c0,9.262,4.889,18.015,12.7,22.812c49.104,30.446,79.529,81.814,82.822,138.88
		h-29.805l-27.985-27.985c-6.324-6.322-16.579-6.322-22.904,0c-6.324,6.324-6.324,16.579,0,22.904l23.369,23.369l-6.131,6.131
		l-18.331,18.331l-24.937-24.935l2.092-2.091c6.324-6.324,6.324-16.579,0-22.904c-6.324-6.322-16.579-6.322-22.904,0l-7.181,7.181
		H124.255c2.936-51.355,27.682-98.045,68.913-129.317c7.126-5.406,8.522-15.563,3.117-22.69c-5.406-7.127-15.565-8.522-22.69-3.117
		c-52.128,39.536-82.025,99.845-82.025,165.468c0.01,73.762,38.475,140.881,101.287,178.392c0.102,0.062,0.206,0.117,0.308,0.177
		c1.908,1.135,3.832,2.251,5.783,3.33c2.088,1.156,4.201,2.282,6.337,3.372c2.279,1.163,4.8,1.768,7.357,1.768h173.562
		c0.64,0,1.276-0.037,1.908-0.113c1.895-0.225,3.741-0.784,5.45-1.655c0.369-0.188,0.726-0.392,1.093-0.581
		c1.759-0.91,3.509-1.828,5.234-2.784c2.041-1.129,4.052-2.292,6.044-3.479c0.016-0.01,0.034-0.019,0.05-0.029
		c62.819-37.513,101.285-104.634,101.285-178.398C507.268,253.566,471.526,188.363,411.436,149.865z M400.417,468.365
		c-0.084,0.058-0.167,0.117-0.251,0.175c-1.286,0.904-2.588,1.788-3.901,2.659c-0.369,0.245-0.743,0.484-1.114,0.726
		c-1.104,0.721-2.215,1.435-3.338,2.133c-0.675,0.418-1.36,0.823-2.042,1.232c-0.883,0.533-1.762,1.069-2.656,1.585
		c-1.467,0.847-2.951,1.676-4.449,2.486c-0.149,0.081-0.295,0.167-0.444,0.248H216.623c-0.152-0.083-0.301-0.17-0.453-0.253
		c-1.493-0.808-2.972-1.632-4.436-2.479c-0.907-0.525-1.799-1.069-2.693-1.608c-0.667-0.402-1.339-0.798-2.002-1.208
		c-1.132-0.703-2.249-1.422-3.362-2.147c-0.364-0.236-0.729-0.471-1.092-0.709c-1.321-0.878-2.632-1.767-3.926-2.677
		c-0.073-0.052-0.146-0.102-0.219-0.154c-40.257-28.38-66.888-72.408-73.08-121.368H336.61l44.715,44.715
		c0.384,0.384,0.785,0.745,1.202,1.085c0.309,0.254,0.633,0.481,0.957,0.709c0.109,0.076,0.209,0.162,0.319,0.235
		c0.395,0.264,0.802,0.502,1.215,0.726c0.049,0.028,0.094,0.058,0.143,0.084c0.419,0.223,0.849,0.423,1.283,0.607
		c0.05,0.021,0.099,0.049,0.149,0.068c0.415,0.17,0.837,0.316,1.262,0.452c0.078,0.024,0.154,0.057,0.233,0.081
		c0.397,0.12,0.798,0.214,1.202,0.303c0.113,0.024,0.225,0.06,0.338,0.083c0.389,0.076,0.781,0.128,1.172,0.175
		c0.133,0.016,0.264,0.044,0.397,0.058c0.526,0.052,1.053,0.078,1.581,0.078s1.056-0.028,1.581-0.078
		c0.133-0.013,0.264-0.04,0.397-0.058c0.392-0.047,0.784-0.099,1.173-0.175c0.115-0.023,0.225-0.058,0.338-0.083
		c0.403-0.089,0.805-0.183,1.202-0.303c0.079-0.024,0.154-0.057,0.233-0.081c0.426-0.136,0.847-0.282,1.263-0.452
		c0.049-0.021,0.094-0.045,0.143-0.066c0.436-0.185,0.868-0.384,1.289-0.609c0.042-0.023,0.083-0.05,0.125-0.073
		c0.418-0.228,0.831-0.47,1.232-0.737c0.092-0.062,0.178-0.134,0.269-0.199c0.342-0.238,0.682-0.478,1.009-0.747
		c0.295-0.241,0.572-0.505,0.85-0.768c0.115-0.108,0.236-0.202,0.348-0.316l44.715-44.715h24.532
		C467.292,395.958,440.669,439.984,400.417,468.365z"/>
	<path style="fill:#FFC61B;" d="M304.353,366.579h-72.905c-8.944,0-16.195,7.252-16.195,16.195v66.986
		c0,8.943,7.25,16.195,16.195,16.195h72.905c8.944,0,16.195-7.252,16.195-16.195v-66.986
		C320.548,373.831,313.297,366.579,304.353,366.579z M288.158,433.567h-40.516V398.97h40.516V433.567z"/>
</g>
<g>
</g>
<g>
</g>
<g>
</g>
<g>
</g>
<g>
</g>
<g>
</g>
<g>
</g>
<g>
</g>
<g>
</g>
<g>
</g>
<g>
</g>
<g>
</g>
<g>
</g>
<g>
</g>
<g>
</g>
</svg>
