<?xml version="1.0" encoding="UTF-8" standalone="no"?>
<!-- Created with Inkscape (http://www.inkscape.org/) -->

<svg version="1.1" id="svg1236" width="5000" height="5000" viewBox="0 0 5000 5000" xmlns:xlink="http://www.w3.org/1999/xlink" xmlns="http://www.w3.org/2000/svg" xmlns:svg="http://www.w3.org/2000/svg">
  <defs id="defs1240" />
  <g id="g1242" style="display:inline">
    <g id="g36924" transform="matrix(1.2305137,0,0,1.2305137,3888.3589,-2012.3781)">
      <path style="opacity:1;fill:#ffdf00;fill-opacity:1;stroke-width:8.28367;paint-order:stroke markers fill" d="m -2105.7373,5661.8898 c 2.3627,-6.834 155.6343,-384.9801 340.6036,-840.3247 184.9692,-455.3446 333.4878,-830.4261 330.0413,-833.5142 -3.4466,-3.0882 -167.7536,-118.4578 -365.1267,-256.3768 l -358.8602,-250.762 36.4487,-38.1614 c 20.0467,-20.9889 198.2565,-207.7697 396.0217,-415.0686 684.3116,-717.3002 1293.67504,-1351.0408 1296.42671,-1348.2892 1.51972,1.5198 -138.67115,362.3532 -311.53532,801.8522 -172.86408,439.499 -314.33259,801.3042 -314.37459,804.0117 -0.041,2.7074 69.8174,52.745 155.24277,111.1946 257.73461,176.3469 526.40756,361.5898 555.30755,382.8698 l 27.22346,20.0455 -68.64182,75.6062 c -208.82235,230.0093 -371.56784,400.0666 -921.32936,962.7227 -307.9396,315.1622 -534.4331,550.8929 -724.246,753.783 -42.6237,45.5602 -75.5644,77.2453 -73.2018,70.4112 z" id="path17434" />
      <path style="opacity:1;fill:#ffdf00;fill-opacity:1;stroke-width:8.28367;paint-order:stroke markers fill" d="m -2165.6552,5324.8456 c -0.2887,-5.4115 74.3028,-265.9393 165.759,-578.9506 136.5684,-467.409 164.3245,-570.9189 155.3188,-579.2257 -6.0308,-5.5628 -104.1564,-78.457 -218.0569,-161.987 -113.9005,-83.5301 -303.5207,-224.2197 -421.3781,-312.6436 -206.7089,-155.0859 -213.7389,-161.2849 -198.8081,-175.3085 126.6702,-118.9744 1596.0082,-1425.3736 1599.37,-1422.0118 6.0514,6.0514 -42.1826,56.2543 -502.0375,522.5313 -594.6667,602.9713 -871.611,902.3175 -851.8954,920.805 5.6471,5.2954 182.6714,131.5372 393.3873,280.5375 210.7159,149.0003 383.1199,273.6326 383.1199,276.9606 0,4.4487 -449.3818,1109.3204 -497.2508,1222.5646 -3.8517,9.1121 -7.2394,12.1398 -7.5282,6.7282 z" id="path17473" />
      <path style="opacity:1;fill:#f39400;fill-opacity:1;stroke-width:8.28367;paint-order:stroke markers fill" d="m -1602.8905,5433.8008 c 0,-7.2736 92.6152,-117.0427 198.4954,-235.2599 43.1102,-48.1334 261.3748,-272.034 485.03251,-497.557 497.56182,-501.7115 606.09027,-620.1773 784.16619,-855.9683 59.265611,-78.4738 62.661337,-85.1463 49.702029,-97.6625 -7.650385,-7.3887 -178.858309,-135.3492 -380.462179,-284.3567 -201.60387,-149.0075 -366.62286,-273.43 -366.70886,-276.4945 -0.31406,-11.1904 442.31774,-1144.2112 445.68721,-1140.8417 7.69495,7.6949 -38.25524,190.886 -123.73172,493.2853 -73.90236,261.4524 -152.94823,579.2208 -145.40876,584.5508 82.62507,58.4114 859.06864,645.4149 859.06864,649.4694 0,3.2871 -388.3228,363.4739 -862.9396,800.4152 -981.63316,903.7101 -942.90086,868.366 -942.90086,860.4199 z" id="path17512" />
      <path style="fill:none;stroke:black;stroke-width:1px;stroke-linecap:butt;stroke-linejoin:miter;stroke-opacity:1" d="m -407.04569,1642.0992 -1221.54751,1681.4929 613.9031,470.4435 -1108.5647,1905.0635 688.6585,-1703.4331 -724.483,-514.7539 z" id="path36396" />
      <path style="opacity:1;fill:#f39400;fill-opacity:1;stroke-width:5.85744;paint-order:stroke markers fill" xlink:href="#path36435" id="path36474" d="m -508.1543,1768.4375 c -4.31161,-4.3116 -589.1702,603.5092 -1330.623,1382.8652 -131.7913,138.5285 -256.4783,269.2311 -277.0821,290.4493 l -37.4609,38.5781 358.3086,251.1133 c 197.0698,138.1126 359.56,254.3719 361.0879,258.3535 3.1101,8.1049 -151.7859,398.1611 -446.25,1123.748 -108.5154,267.3922 -198.7791,490.1228 -200.586,494.9551 -2.1715,5.8076 -1.3288,6.7994 2.4825,2.9277 3.1714,-3.2216 242.3524,-412.7516 531.5136,-910.0683 437.6894,-752.7645 524.4271,-905.4962 517.8711,-911.8731 -4.3312,-4.213 -140.9853,-109.6592 -303.6758,-234.3261 -162.6904,-124.6669 -295.5296,-229.7176 -295.1992,-233.4454 0.3303,-3.7278 252.965,-354.1541 561.4102,-778.7246 308.44523,-424.5706 559.63647,-773.1193 558.2031,-774.5527 z" />
      <path style="opacity:1;fill:#f39400;fill-opacity:1;stroke:none;stroke-width:5.85744;paint-order:stroke markers fill" d="m -2080.7591,5608.4994 c 1.8069,-4.8323 92.0706,-227.5615 200.586,-494.9537 294.4641,-725.5869 449.3584,-1115.6439 446.2483,-1123.7488 -1.5279,-3.9816 -164.0169,-120.2406 -361.0867,-258.3532 l -358.3086,-251.1138 37.4614,-38.5784 c 20.6038,-21.2182 145.2907,-151.9199 277.082,-290.4484 741.4528,-779.356 1326.31097,-1387.1769 1330.62258,-1382.8653 1.43337,1.4334 -249.75823,349.9821 -558.20348,774.5527 -308.4452,424.5705 -561.0799,774.9965 -561.4102,778.7243 -0.3304,3.7278 132.5096,108.7779 295.2,233.4448 162.6905,124.6669 299.3446,230.1139 303.6758,234.3269 6.556,6.3769 -80.1832,159.1075 -517.8726,911.872 -289.1612,497.3167 -528.3423,906.8481 -531.5137,910.0697 -3.8113,3.8717 -4.6523,2.8788 -2.4808,-2.9288 z" id="path36435" />
    </g>
  </g>
</svg>
