<?xml version="1.0" encoding="UTF-8" standalone="no"?>
<svg width="312.91339" height="294.14661" version="1.1" viewBox="0 0 312.9134 294.14661" id="svg873" sodipodi:docname="mom.svg" inkscape:version="1.1.2 (0a00cf5339, 2022-02-04)" xmlns:inkscape="http://www.inkscape.org/namespaces/inkscape" xmlns:sodipodi="http://sodipodi.sourceforge.net/DTD/sodipodi-0.dtd" xmlns="http://www.w3.org/2000/svg" xmlns:svg="http://www.w3.org/2000/svg">
  <sodipodi:namedview id="namedview875" pagecolor="#505050" bordercolor="#eeeeee" borderopacity="1" inkscape:pageshadow="0" inkscape:pageopacity="0" inkscape:pagecheckerboard="0" showgrid="false" inkscape:zoom="2" inkscape:cx="134.25" inkscape:cy="100" inkscape:window-width="2560" inkscape:window-height="1393" inkscape:window-x="0" inkscape:window-y="0" inkscape:window-maximized="1" inkscape:current-layer="svg873" fit-margin-top="0" fit-margin-left="0" fit-margin-right="0" fit-margin-bottom="0" />
  <defs id="defs859">
    <filter id="a" x="0" y="0" width="1" height="1" color-interpolation-filters="sRGB">
      <feColorMatrix result="color1" type="hueRotate" values="180" id="feColorMatrix824" />
      <feColorMatrix result="fbSourceGraphic" values="-1 0 0 0 1 0 -1 0 0 1 0 0 -1 0 1 -0.21 -0.72 -0.07 2 0 " id="feColorMatrix826" />
      <feColorMatrix in="fbSourceGraphic" result="fbSourceGraphicAlpha" values="0 0 0 -1 0 0 0 0 -1 0 0 0 0 -1 0 0 0 0 1 0" id="feColorMatrix828" />
      <feColorMatrix in="fbSourceGraphic" result="color1" type="hueRotate" values="180" id="feColorMatrix830" />
      <feColorMatrix result="fbSourceGraphic" values="-1 0 0 0 1 0 -1 0 0 1 0 0 -1 0 1 -0.21 -0.72 -0.07 2 0 " id="feColorMatrix832" />
      <feColorMatrix in="fbSourceGraphic" result="fbSourceGraphicAlpha" values="0 0 0 -1 0 0 0 0 -1 0 0 0 0 -1 0 0 0 0 1 0" id="feColorMatrix834" />
      <feColorMatrix in="fbSourceGraphic" result="fbSourceGraphic" values="-1 0 0 0 1 0 -1 0 0 1 0 0 -1 0 1 -0.21 -0.72 -0.07 2 0 " id="feColorMatrix836" />
      <feColorMatrix in="fbSourceGraphic" result="fbSourceGraphicAlpha" values="0 0 0 -1 0 0 0 0 -1 0 0 0 0 -1 0 0 0 0 1 0" id="feColorMatrix838" />
      <feColorMatrix in="fbSourceGraphic" result="fbSourceGraphic" values="-1 0 0 0 1 0 -1 0 0 1 0 0 -1 0 1 -0.21 -0.72 -0.07 2 0 " id="feColorMatrix840" />
      <feColorMatrix in="fbSourceGraphic" result="fbSourceGraphicAlpha" values="0 0 0 -1 0 0 0 0 -1 0 0 0 0 -1 0 0 0 0 1 0" id="feColorMatrix842" />
      <feColorMatrix in="fbSourceGraphic" result="fbSourceGraphic" values="-1 0 0 0 1 0 -1 0 0 1 0 0 -1 0 1 -0.21 -0.72 -0.07 2 0 " id="feColorMatrix844" />
      <feColorMatrix in="fbSourceGraphic" result="fbSourceGraphicAlpha" values="0 0 0 -1 0 0 0 0 -1 0 0 0 0 -1 0 0 0 0 1 0" id="feColorMatrix846" />
      <feColorMatrix in="fbSourceGraphic" result="fbSourceGraphic" values="-1 0 0 0 1 0 -1 0 0 1 0 0 -1 0 1 -0.21 -0.72 -0.07 2 0 " id="feColorMatrix848" />
      <feColorMatrix in="fbSourceGraphic" result="fbSourceGraphicAlpha" values="0 0 0 -1 0 0 0 0 -1 0 0 0 0 -1 0 0 0 0 1 0" id="feColorMatrix850" />
      <feColorMatrix in="fbSourceGraphic" result="fbSourceGraphic" values="-1 0 0 0 1 0 -1 0 0 1 0 0 -1 0 1 -0.21 -0.72 -0.07 2 0 " id="feColorMatrix852" />
      <feColorMatrix in="fbSourceGraphic" result="fbSourceGraphicAlpha" values="0 0 0 -1 0 0 0 0 -1 0 0 0 0 -1 0 0 0 0 1 0" id="feColorMatrix854" />
      <feColorMatrix in="fbSourceGraphic" result="color2" values="-1 0 0 0 1 0 -1 0 0 1 0 0 -1 0 1 -0.21 -0.72 -0.07 2 0 " id="feColorMatrix856" />
    </filter>
  </defs>
  <g fill="#a69553" id="g867" transform="translate(-130.58712,-95.595078)" style="stroke-width:0.63407">
    <path d="m 282.88,210.536 c -1.5865,-2.0475 -5.1083,-6.6991 -7.8264,-10.337 l -4.9419,-6.614 -8.2416,-1.4979 c -21.03211,-2.12103 -45.90463,-15.96028 -54.701,-32.8695 -1.0409,-2.0704 -2.0974,-4.7109 -2.3479,-5.8677 -8.6232,-18.503 18.318,-41.394 28.514,-46.611 11.387,-5.6332 21.578,-8.4757 36.587,-10.204 10.836,-1.248 14.743,-1.2511 26.054,-0.0211 23.761,2.5838 44.182,11.233 55.741,23.608 10.119,10.833 13.247,23.369 8.6938,34.839 -4.4458,11.201 -11.197,18.191 -25.942,26.859 -8.7635,5.1515 -17.464,8.1062 -31.069,10.551 -2.8416,0.51063 -2.8797,0.55273 -9.2788,10.234 -3.534,5.3468 -6.8601,10.156 -7.3913,10.687 -0.86495,0.86495 -1.2668,0.5772 -3.8502,-2.757 z" filter="url(#a)" id="path861" sodipodi:nodetypes="ccccccccccccscccc" />
    <path d="m 183.28,250.73 c -0.1308,-0.43592 -0.56836,-3.3606 -0.97236,-6.4992 -0.40401,-3.1386 -59.18571,-0.23239 -42.58742,-47.47132 45.61055,-64.9249 194.54692,0.0609 67.94702,39.62052 -6.2867,5.667 -23.5945,15.14335 -23.7905,15.14335 -0.196,0 -0.46507,-0.35667 -0.59586,-0.79259 z" filter="url(#a)" id="path863" sodipodi:nodetypes="csccscc" />
    <path d="m 377.76,241.07 c -9.65,-8.7001 -31.3961,-6.09583 -47.5838,-20.73005 -38.60065,-52.1075 122.38641,-102.28204 110.22672,-14.53687 -8.79604,28.18276 -46.84392,31.49999 -47.48342,32.08793 -0.47877,0.44011 -1.1466,3.5361 -1.5534,7.2013 -0.40374,3.638 -1.0026,6.4226 -1.3794,6.4138 -0.36624,-0.008 -5.8678,-4.7054 -12.226,-10.437 z" filter="url(#a)" id="path865" sodipodi:nodetypes="cccssccc" />
  </g>
  <path d="m 0.48288349,262.28492 c 1.78549501,-11.4462 -3.18404499,-24.68757 1.83620001,-35.3916 5.2052,-11.099 19.4919995,-14.856 29.1279995,-7.6616 1.2377,0.92412 8.1858,8.1002 15.44,15.947 7.2542,7.8468 14.566,15.622 16.249,17.278 l 3.0591,3.0118 10.668,0.003 c 9.5262,0.002 10.889,0.1372 12.734,1.2623 5.8248,3.5514 6.1101,12.369 0.51215,15.829 -1.8753,1.159 -3.2282,1.2664 -16.591,1.3174 -8.0551,0.0308 -15.274,-0.22008 -16.173,-0.56192 -0.89318,-0.33959 -4.7389,-3.9952 -8.546,-8.1237 -3.8071,-4.1286 -7.3501,-7.5064 -7.8732,-7.5064 -1.12229,2.01229 -1.28764,36.458 -1.28764,36.458 H 0.30149349 Z m 272.50999651,13.474 c 0,-17.093 -0.0782,-18.387 -1.1096,-18.379 -0.61029,0.004 -4.2045,3.4462 -7.9872,7.6478 -3.7827,4.2016 -7.5819,7.907 -8.4427,8.2343 -0.8608,0.32728 -8.1804,0.59317 -16.266,0.59087 -13.333,-0.004 -14.869,-0.11537 -16.513,-1.1992 -5.7513,-3.7918 -5.6001,-12.88 0.26654,-16.026 1.8496,-0.99197 3.711,-1.1586 12.941,-1.1586 h 10.781 l 4.1294,-4.3308 c 2.2712,-2.3819 9.836,-10.502 16.811,-18.045 15.136,-16.369 16.43,-17.259 25.046,-17.245 4.5993,0.008 5.8544,0.25523 8.5599,1.6889 16.00894,9.66748 10.93166,39.08374 10.9651,44.7474 l 0.18598,31.862 h -39.367 z m -139.83,-3.321 c -0.96149,-6.1261 1.07585,-36.17921 -1.82441,-36.309 -5.75003,4.26272 -7.93802,14.95512 -8.5389,21.0424 -0.62259,6.7471 -1.8644,9.0159 -5.7956,10.589 -3.2693,1.3081 -4.7738,1.2729 -7.9883,-0.18693 -1.9813,-0.89979 -2.9494,-1.897 -4.0514,-4.1734 -1.2978,-2.6808 -1.4046,-3.5599 -1.0294,-8.4733 1.5081,-19.75 12.696,-37.028 29.242,-45.162 7.3932,-3.6341 11.895,-4.8994 19.34,-5.4356 9.1389,-0.65821 20.247,2.0167 28.25,6.8027 5.1802,3.098 13.073,10.718 16.665,16.088 5.8654,8.7695 9.5907,20.711 9.6033,30.785 0.004,3.6368 -0.29045,5.2417 -1.254,6.822 -3.5372,5.8014 -11.99,6.2143 -15.864,0.77483 -1.0498,-1.4744 -1.5068,-3.3957 -1.925,-8.0939 -0.76989,-8.6494 -2.8281,-14.949 -6.5124,-19.932 -1.0933,-1.4788 -2.5642,-2.2398 -3.1013,-1.6046 -0.43962,13.01485 -0.55708,22.93618 -0.81704,36.934 -9.00971,-1.2481 -37.2914,-0.57987 -44.4,-0.46732 z" fill="#b3b3b3" filter="url(#a)" id="path869" style="stroke-width:0.63407" sodipodi:nodetypes="ccsscccccsscccccccsscccscccccccccccccssccscccscsccccc" />
  <circle style="opacity:1;fill:#b4b4b4;fill-opacity:1;paint-order:stroke markers fill" id="path3226" cx="156.09737" cy="178.362" r="21.306793" />
  <circle style="fill:#b4b4b4;fill-opacity:1;paint-order:stroke markers fill" id="path3226-3" cx="23.729671" cy="189.06964" r="21.306793" />
  <circle style="fill:#b4b4b4;fill-opacity:1;paint-order:stroke markers fill" id="path3226-6" cx="291.48651" cy="190.06728" r="21.306793" />
  <rect style="fill:#b4b4b4;fill-opacity:1;fill-rule:evenodd;stroke-width:1.00157;stroke-miterlimit:4;stroke-dasharray:none" id="rect5852" width="177.98764" height="13.015493" x="66.325851" y="280.48782" />
</svg>
